<svg xmlns="http://www.w3.org/2000/svg" viewBox="0 0 900 500"><rect width="900" height="500" fill="#eef3f4"/><path d="M0 390 Q180 330 340 390 T650 375 T900 390 V500 H0 Z" fill="#cbd5c0"/><line x1="80" y1="250" x2="820" y2="250" stroke="#475569" stroke-width="14"/><g stroke="#64748b" stroke-width="12"><line x1="205" y1="130" x2="205" y2="420"/><line x1="360" y1="95" x2="360" y2="430"/><line x1="520" y1="80" x2="520" y2="435"/><line x1="680" y1="120" x2="680" y2="420"/></g><g stroke="#64748b" stroke-width="4"><line x1="205" y1="130" x2="135" y2="250"/><line x1="205" y1="130" x2="280" y2="250"/><line x1="360" y1="95" x2="285" y2="250"/><line x1="360" y1="95" x2="435" y2="250"/><line x1="520" y1="80" x2="445" y2="250"/><line x1="520" y1="80" x2="595" y2="250"/><line x1="680" y1="120" x2="610" y2="250"/><line x1="680" y1="120" x2="750" y2="250"/></g><text x="450" y="470" text-anchor="middle" font-family="Arial" font-size="34" fill="#0f172a">Millau Viaduct</text></svg>